<svg width="748" height="546" viewBox="0 0 748 546" fill="none" xmlns="http://www.w3.org/2000/svg">
<path d="M339.528 6.65926C325.543 13.1636 311.234 29.0993 307.981 42.108C307.006 46.0106 307.656 54.1411 309.282 60.3202C312.534 71.7028 333.348 94.7933 340.503 94.7933C346.357 94.7933 346.032 101.623 336.926 159.837C327.494 218.376 318.714 258.378 306.681 294.802C291.395 341.959 280.663 356.919 265.378 353.016C253.02 350.089 219.847 327.975 195.456 306.51C173.666 287.648 88.1341 196.912 85.5323 190.082C84.5567 187.806 87.4836 181.627 91.7115 176.423C96.5897 170.894 100.818 160.813 102.118 151.381C103.745 138.047 103.094 134.795 96.9149 127.966C79.3532 109.428 46.5062 102.273 26.3427 112.68C10.407 120.811 0 136.096 0 150.731C0 179.35 17.887 198.863 46.1809 200.814C55.287 201.14 62.7671 202.115 63.0923 202.766C63.4175 203.416 72.8488 222.604 83.581 246.02C107.647 296.428 130.087 361.147 130.087 380.009C130.087 391.392 131.713 394.644 139.844 400.498C149.275 407.003 149.6 407.003 151.877 401.474C157.731 386.839 153.828 356.269 142.12 321.47C135.616 301.957 130.087 285.371 130.087 284.395C130.087 283.42 142.445 294.477 158.056 309.112C205.538 353.992 247.816 380.985 271.232 380.985C292.696 380.985 303.428 371.879 318.714 341.309C331.072 315.942 345.381 265.208 358.715 198.863L362.943 177.724L370.423 208.62C380.83 250.573 401.644 310.413 413.677 332.528C435.142 373.505 454.329 379.034 495.957 357.244C516.446 346.512 572.384 305.535 598.726 282.119C604.255 277.241 609.133 273.663 609.784 274.314C610.109 274.964 603.93 295.128 596.124 319.194L581.49 363.423L592.222 380.985C604.58 401.149 604.58 401.149 613.036 356.594C619.54 320.82 632.224 288.623 655.965 246.345L673.852 214.474L664.745 206.668C659.542 202.44 654.013 199.188 652.387 198.863C650.761 198.863 638.403 209.595 624.744 222.604C553.521 290.575 469.615 350.089 453.679 343.91C445.874 340.983 420.182 283.745 408.474 242.767C390.587 180.651 372.7 96.7446 377.253 95.4438C384.408 92.842 400.343 77.5568 405.222 68.1255C411.075 57.068 412.051 33.3271 407.173 24.221C402.945 16.4158 371.724 0.480116 360.992 0.480116C356.439 0.480116 346.682 3.40708 339.528 6.65926ZM377.903 31.3758C388.635 38.5306 389.611 40.4819 387.009 48.9376C381.155 70.0768 375.301 75.2802 357.74 75.2802C351.561 75.2802 346.032 72.0281 340.178 65.1985C330.421 53.8159 330.421 52.515 335.3 41.4576C338.877 33.9776 354.813 23.5706 362.618 23.2454C364.569 23.2454 371.399 26.8228 377.903 31.3758ZM73.4993 138.373C81.9549 145.202 82.2801 146.503 78.3775 155.934C72.8488 169.593 64.7184 176.098 51.0592 178.374C27.3183 181.952 12.6835 152.032 31.2209 137.397C43.254 127.966 62.1166 128.291 73.4993 138.373Z" fill="black"/>
<path d="M676.127 122.112C662.142 131.544 655.313 146.504 655.638 165.692C656.288 189.758 677.753 208.946 705.071 209.271C731.089 209.596 748 192.685 748 166.342C748 124.064 708.649 99.9976 676.127 122.112ZM717.104 145.203C728.162 155.935 728.487 176.749 718.08 183.904C693.038 201.791 664.094 162.765 688.16 143.902C699.542 135.121 707.348 135.446 717.104 145.203Z" fill="black"/>
<path d="M343.103 399.198C296.272 404.076 240.985 411.556 214.642 416.76C180.494 423.589 93.3357 447.981 82.2782 453.835C75.1235 457.737 55.2852 480.828 55.2852 485.381C55.2852 489.609 57.8869 489.283 87.807 478.226C135.289 460.989 184.722 446.355 212.365 441.151C323.265 420.662 441.644 418.386 530.103 434.972C557.097 439.85 596.123 457.737 597.749 465.868C599.05 473.023 583.114 479.202 536.608 489.283C452.051 508.146 373.023 515.626 260.172 515.626C186.998 515.626 168.136 514.65 156.103 510.748L141.468 505.544L156.103 498.715C189.925 483.429 265.051 468.795 313.183 468.795C328.468 468.469 343.103 466.843 347.331 464.567L354.811 460.339L346.68 451.558C339.2 443.428 336.599 442.777 311.882 442.777C260.823 442.777 173.339 459.689 140.492 476.275C121.63 485.706 112.198 497.739 115.125 509.447C118.377 521.805 130.411 532.863 145.696 536.765C228.952 559.205 528.152 534.814 599.375 499.69C627.344 485.706 632.547 475.299 622.465 453.835C607.505 422.289 531.404 402.125 417.903 399.523C384.081 398.548 350.258 398.548 343.103 399.198Z" fill="black"/>
</svg>
