<svg width="35" height="35" viewBox="0 0 35 35" fill="none" xmlns="http://www.w3.org/2000/svg">
<g clip-path="url(#clip0_3537_106)">
<path d="M33.7181 13.2257L22.6567 2.16279C21.2877 0.797772 19.4333 0.03125 17.5 0.03125C15.5668 0.03125 13.7124 0.797772 12.3434 2.16279L1.28189 13.2257C0.87418 13.6308 0.550932 14.1128 0.330888 14.6438C0.110844 15.1747 -0.00161933 15.7441 1.76159e-05 16.3188V30.6353C1.76159e-05 31.7956 0.460954 32.9084 1.28143 33.7289C2.1019 34.5494 3.2147 35.0103 4.37502 35.0103H30.625C31.7853 35.0103 32.8981 34.5494 33.7186 33.7289C34.5391 32.9084 35 31.7956 35 30.6353V16.3188C35.0017 15.7441 34.8892 15.1747 34.6691 14.6438C34.4491 14.1128 34.1259 13.6308 33.7181 13.2257ZM21.875 32.0936H13.125V26.3565C13.125 25.1962 13.586 24.0834 14.4064 23.2629C15.2269 22.4425 16.3397 21.9815 17.5 21.9815C18.6603 21.9815 19.7731 22.4425 20.5936 23.2629C21.4141 24.0834 21.875 25.1962 21.875 26.3565V32.0936ZM32.0834 30.6353C32.0834 31.0221 31.9297 31.393 31.6562 31.6665C31.3827 31.94 31.0118 32.0936 30.625 32.0936H24.7917V26.3565C24.7917 24.4227 24.0235 22.568 22.656 21.2006C21.2886 19.8331 19.4339 19.0649 17.5 19.0649C15.5661 19.0649 13.7115 19.8331 12.344 21.2006C10.9766 22.568 10.2084 24.4227 10.2084 26.3565V32.0936H4.37502C3.98824 32.0936 3.61731 31.94 3.34382 31.6665C3.07033 31.393 2.91668 31.0221 2.91668 30.6353V16.3188C2.91804 15.9323 3.07154 15.5619 3.34398 15.2878L14.4054 4.22925C15.2275 3.41102 16.3402 2.95166 17.5 2.95166C18.6599 2.95166 19.7725 3.41102 20.5946 4.22925L31.6561 15.2922C31.9274 15.5652 32.0809 15.9339 32.0834 16.3188V30.6353Z" fill="#25292E" fill-opacity="0.77"/>
</g>
<defs>
<clipPath id="clip0_3537_106">
<rect width="35" height="35" fill="white"/>
</clipPath>
</defs>
</svg>
