<svg width="35" height="35" viewBox="0 0 35 35" fill="none" xmlns="http://www.w3.org/2000/svg">
<path d="M17.5 17.5C19.2306 17.5 20.9223 16.9868 22.3612 16.0254C23.8002 15.0639 24.9217 13.6973 25.5839 12.0985C26.2462 10.4996 26.4195 8.7403 26.0819 7.04296C25.7442 5.34563 24.9109 3.78653 23.6872 2.56282C22.4635 1.33911 20.9044 0.505753 19.207 0.168133C17.5097 -0.169488 15.7504 0.00379125 14.1515 0.666058C12.5527 1.32832 11.1861 2.44983 10.2246 3.88876C9.26318 5.32769 8.75 7.01942 8.75 8.75C8.75232 11.0699 9.67493 13.2942 11.3154 14.9346C12.9558 16.5751 15.1801 17.4977 17.5 17.5ZM17.5 2.91667C18.6537 2.91667 19.7815 3.25879 20.7408 3.89976C21.7001 4.54074 22.4478 5.45178 22.8893 6.51768C23.3308 7.58359 23.4463 8.75647 23.2212 9.88803C22.9962 11.0196 22.4406 12.059 21.6248 12.8748C20.809 13.6906 19.7696 14.2462 18.638 14.4713C17.5065 14.6963 16.3336 14.5808 15.2677 14.1393C14.2018 13.6978 13.2907 12.9501 12.6498 11.9908C12.0088 11.0315 11.6667 9.90373 11.6667 8.75C11.6667 7.20291 12.2812 5.71918 13.3752 4.62521C14.4692 3.53125 15.9529 2.91667 17.5 2.91667Z" fill="#25292E" fill-opacity="0.77"/>
<path d="M17.5 20.4165C14.0202 20.4204 10.6841 21.8044 8.22349 24.265C5.76291 26.7256 4.37886 30.0617 4.375 33.5415C4.375 33.9283 4.52865 34.2992 4.80214 34.5727C5.07563 34.8462 5.44656 34.9998 5.83333 34.9998C6.22011 34.9998 6.59104 34.8462 6.86453 34.5727C7.13802 34.2992 7.29167 33.9283 7.29167 33.5415C7.29167 30.8341 8.36718 28.2376 10.2816 26.3231C12.1961 24.4087 14.7926 23.3332 17.5 23.3332C20.2074 23.3332 22.8039 24.4087 24.7184 26.3231C26.6328 28.2376 27.7083 30.8341 27.7083 33.5415C27.7083 33.9283 27.862 34.2992 28.1355 34.5727C28.409 34.8462 28.7799 34.9998 29.1667 34.9998C29.5534 34.9998 29.9244 34.8462 30.1979 34.5727C30.4714 34.2992 30.625 33.9283 30.625 33.5415C30.6211 30.0617 29.2371 26.7256 26.7765 24.265C24.3159 21.8044 20.9798 20.4204 17.5 20.4165Z" fill="#25292E" fill-opacity="0.77"/>
</svg>
