<svg width="243" height="513" viewBox="0 0 243 513" fill="none" xmlns="http://www.w3.org/2000/svg">
<path d="M21.457 512.087C18.6494 512.104 15.8662 511.565 13.267 510.504C10.6678 509.442 8.30375 507.878 6.31036 505.901C4.31082 503.917 2.72375 501.558 1.64069 498.958C0.557621 496.359 0 493.57 0 490.754C0 487.938 0.557621 485.149 1.64069 482.55C2.72375 479.95 4.31082 477.591 6.31036 475.607L180.604 301.314C192.589 289.314 199.321 273.047 199.321 256.087C199.321 239.127 192.589 222.861 180.604 210.861L6.31036 36.5673C2.29322 32.5501 0.0364075 27.1017 0.0364075 21.4206C0.0364075 15.7395 2.29322 10.2911 6.31036 6.27395C10.3275 2.25681 15.7759 0 21.457 0C27.1381 0 32.5866 2.25681 36.6037 6.27395L210.897 180.567C220.831 190.476 228.712 202.246 234.089 215.205C239.466 228.164 242.234 242.057 242.234 256.087C242.234 270.118 239.466 284.01 234.089 296.969C228.712 309.928 220.831 321.699 210.897 331.607L36.6037 505.901C34.6103 507.878 32.2462 509.442 29.647 510.504C27.0478 511.565 24.2646 512.104 21.457 512.087Z" fill="#8B8B8B"/>
</svg>
