<svg width="512" height="512" viewBox="0 0 512 512" fill="none" xmlns="http://www.w3.org/2000/svg">
<g clip-path="url(#clip0_3608_53)">
<path d="M480.767 180.48L331.455 31.1254C311.295 10.9867 284.522 -0.12793 256.021 -0.12793C227.519 -0.12793 200.725 10.9867 180.586 31.1254L31.2738 180.48C-10.3048 222.059 -10.3048 289.707 31.2738 331.285L180.586 480.64C200.725 500.779 227.519 511.893 256.021 511.893C284.522 511.893 311.295 500.779 331.455 480.64L480.767 331.285C500.906 311.147 511.999 284.373 511.999 255.893C511.999 227.413 500.906 200.619 480.767 180.48ZM450.602 301.12L301.29 450.475C277.098 474.645 234.943 474.645 210.751 450.475L61.4392 301.12C36.5005 276.181 36.5005 235.584 61.4392 210.645L210.751 61.2907C222.847 49.2161 238.911 42.5387 256.021 42.5387C273.13 42.5387 289.194 49.1947 301.29 61.2907L450.602 210.645C462.677 222.72 469.333 238.784 469.333 255.893C469.333 273.003 462.677 289.045 450.602 301.12ZM287.999 352C287.999 369.664 273.663 384 255.999 384C238.335 384 223.999 369.664 223.999 352C223.999 334.336 238.335 320 255.999 320C273.663 320 287.999 334.336 287.999 352ZM234.666 266.667V149.333C234.666 137.536 244.223 128 255.999 128C267.775 128 277.333 137.536 277.333 149.333V266.667C277.333 278.464 267.775 288 255.999 288C244.223 288 234.666 278.464 234.666 266.667Z" fill="#575A5E"/>
</g>
<defs>
<clipPath id="clip0_3608_53">
<rect width="512" height="512" fill="white"/>
</clipPath>
</defs>
</svg>
