<svg width="512" height="512" viewBox="0 0 512 512" fill="none" xmlns="http://www.w3.org/2000/svg">
<g clip-path="url(#clip0_3603_21)">
<path d="M512 256C512 267.797 502.443 277.333 490.667 277.333H277.333V490.667C277.333 502.464 267.776 512 256 512C244.224 512 234.667 502.464 234.667 490.667V277.333H21.3333C9.55733 277.333 0 267.797 0 256C0 244.203 9.55733 234.667 21.3333 234.667H234.667V21.3333C234.667 9.536 244.224 0 256 0C267.776 0 277.333 9.536 277.333 21.3333V234.667H490.667C502.443 234.667 512 244.203 512 256ZM490.667 341.333H362.667C350.891 341.333 341.333 350.869 341.333 362.667C341.333 374.464 350.891 384 362.667 384H490.667C502.443 384 512 374.464 512 362.667C512 350.869 502.443 341.333 490.667 341.333ZM490.667 426.667H362.667C350.891 426.667 341.333 436.203 341.333 448C341.333 459.797 350.891 469.333 362.667 469.333H490.667C502.443 469.333 512 459.797 512 448C512 436.203 502.443 426.667 490.667 426.667ZM21.3333 128H149.333C161.109 128 170.667 118.464 170.667 106.667C170.667 94.8693 161.109 85.3333 149.333 85.3333H21.3333C9.55733 85.3333 0 94.8693 0 106.667C0 118.464 9.55733 128 21.3333 128ZM362.667 128H405.333V170.667C405.333 182.464 414.891 192 426.667 192C438.443 192 448 182.464 448 170.667V128H490.667C502.443 128 512 118.464 512 106.667C512 94.8693 502.443 85.3333 490.667 85.3333H448V42.6667C448 30.8693 438.443 21.3333 426.667 21.3333C414.891 21.3333 405.333 30.8693 405.333 42.6667V85.3333H362.667C350.891 85.3333 341.333 94.8693 341.333 106.667C341.333 118.464 350.891 128 362.667 128ZM164.416 347.584C156.075 339.243 142.592 339.243 134.251 347.584L96 385.835L57.7493 347.584C49.408 339.243 35.9253 339.243 27.584 347.584C19.2427 355.925 19.2427 369.408 27.584 377.749L65.8347 416L27.584 454.251C19.2427 462.592 19.2427 476.075 27.584 484.416C31.744 488.576 37.2053 490.667 42.6667 490.667C48.128 490.667 53.5893 488.576 57.7493 484.416L96 446.165L134.251 484.416C138.411 488.576 143.872 490.667 149.333 490.667C154.795 490.667 160.256 488.576 164.416 484.416C172.757 476.075 172.757 462.592 164.416 454.251L126.165 416L164.416 377.749C172.757 369.408 172.757 355.925 164.416 347.584Z" fill="#575A5E"/>
</g>
<defs>
<clipPath id="clip0_3603_21">
<rect width="512" height="512" fill="white"/>
</clipPath>
</defs>
</svg>
