<svg width="512" height="512" viewBox="0 0 512 512" fill="none" xmlns="http://www.w3.org/2000/svg">
<g clip-path="url(#clip0_3603_23)">
<path d="M352 0C262.272 0 192 42.176 192 96V151.189C181.675 149.973 170.987 149.333 160 149.333C70.272 149.333 0 191.509 0 245.333V416C0 469.824 70.272 512 160 512C232.875 512 292.928 484.181 312.896 444.885C325.632 446.741 338.645 448 352 448C441.728 448 512 405.824 512 352V96C512 42.176 441.728 0 352 0ZM352 42.6667C419.157 42.6667 469.333 70.8267 469.333 96C469.333 121.173 419.157 149.333 352 149.333C284.843 149.333 234.667 121.173 234.667 96C234.667 70.8267 284.843 42.6667 352 42.6667ZM160 192C227.157 192 277.333 220.16 277.333 245.333C277.333 270.507 227.157 298.667 160 298.667C92.8427 298.667 42.6667 270.507 42.6667 245.333C42.6667 220.16 92.8427 192 160 192ZM42.6667 311.083C71.68 329.749 113.131 341.333 160 341.333C206.869 341.333 248.32 329.749 277.333 311.083V330.667C277.333 355.84 227.157 384 160 384C92.8427 384 42.6667 355.84 42.6667 330.667V311.083ZM160 469.333C92.8427 469.333 42.6667 441.173 42.6667 416V396.416C71.68 415.083 113.131 426.667 160 426.667C206.869 426.667 248.32 415.083 277.333 396.416V416C277.333 441.173 227.157 469.333 160 469.333ZM352 405.333C341.035 405.333 330.411 404.331 320 402.859V360.619C330.496 361.856 341.12 362.667 352 362.667C398.869 362.667 440.32 351.083 469.333 332.416V352C469.333 377.173 419.157 405.333 352 405.333ZM352 320C341.035 320 330.411 318.997 320 317.525V275.285C330.496 276.523 341.12 277.333 352 277.333C398.869 277.333 440.32 265.749 469.333 247.083V266.667C469.333 291.84 419.157 320 352 320ZM352 234.667C340.437 234.667 329.259 233.579 318.336 231.957C314.112 213.035 301.077 196.032 281.621 182.443C302.784 188.523 326.549 192.021 352 192.021C398.869 192.021 440.32 180.437 469.333 161.771V181.355C469.333 206.528 419.157 234.688 352 234.688V234.667Z" fill="#575A5E"/>
</g>
<defs>
<clipPath id="clip0_3603_23">
<rect width="512" height="512" fill="white"/>
</clipPath>
</defs>
</svg>
