<svg width="512" height="512" viewBox="0 0 512 512" fill="none" xmlns="http://www.w3.org/2000/svg">
<g clip-path="url(#clip0_3603_33)">
<path d="M288 45.12V32C288 23.5131 284.628 15.3737 278.627 9.37258C272.626 3.37142 264.487 0 256 0C247.513 0 239.373 3.37142 233.372 9.37258C227.371 15.3737 224 23.5131 224 32V45.12C183.303 50.6152 144.77 66.7243 112.271 91.8285C79.7724 116.933 54.4531 150.148 38.8571 188.137C23.2612 226.126 17.9379 267.551 23.4223 308.248C28.9066 348.946 45.0054 387.484 70.101 419.989C61.268 427.249 54.2062 436.427 49.4524 446.826C44.6985 457.225 42.3777 468.57 42.6664 480C42.6664 488.487 46.0378 496.626 52.0389 502.627C58.0401 508.629 66.1794 512 74.6664 512C83.1533 512 91.2926 508.629 97.2938 502.627C103.295 496.626 106.666 488.487 106.666 480C106.34 476.83 107.132 473.645 108.904 470.997C110.676 468.348 113.318 466.401 116.373 465.493C156.661 495.661 205.637 511.965 255.968 511.965C306.298 511.965 355.275 495.661 395.562 465.493C398.629 466.389 401.285 468.33 403.07 470.98C404.855 473.63 405.656 476.821 405.333 480C405.333 488.487 408.704 496.626 414.706 502.627C420.707 508.629 428.846 512 437.333 512C445.82 512 453.959 508.629 459.96 502.627C465.962 496.626 469.333 488.487 469.333 480C469.622 468.57 467.301 457.225 462.547 446.826C457.793 436.427 450.731 427.249 441.898 419.989C466.994 387.484 483.093 348.946 488.577 308.248C494.061 267.551 488.738 226.126 473.142 188.137C457.546 150.148 432.227 116.933 399.728 91.8285C367.23 66.7243 328.696 50.6152 288 45.12ZM85.333 277.333C85.333 243.579 95.3425 210.582 114.096 182.516C132.849 154.45 159.503 132.575 190.688 119.658C221.874 106.741 256.189 103.361 289.295 109.946C322.401 116.531 352.811 132.786 376.679 156.654C400.547 180.522 416.802 210.932 423.387 244.038C429.972 277.144 426.593 311.459 413.675 342.645C400.758 373.83 378.883 400.484 350.817 419.237C322.751 437.991 289.754 448 256 448C210.752 447.949 167.371 429.952 135.376 397.957C103.381 365.962 85.3839 322.581 85.333 277.333Z" fill="#575A5E"/>
<path d="M416 0.00014909C407.513 0.00014909 399.374 3.37157 393.373 9.37273C387.371 15.3739 384 23.5132 384 32.0002C384 40.4871 387.371 48.6264 393.373 54.6276C399.374 60.6287 407.513 64.0001 416 64.0001C420.248 63.6698 424.516 64.2782 428.502 65.7823C432.488 67.2863 436.094 69.6492 439.065 72.7032C442.035 75.7572 444.297 79.4275 445.69 83.4537C447.083 87.4799 447.573 91.7634 447.125 96.0002C447.125 104.487 450.497 112.626 456.498 118.628C462.499 124.629 470.638 128 479.125 128C487.612 128 495.752 124.629 501.753 118.628C507.754 112.626 511.125 104.487 511.125 96.0002C511.619 83.3351 509.504 70.7037 504.91 58.8909C500.315 47.0781 493.341 36.3364 484.42 27.3331C475.499 18.3298 464.821 11.2574 453.051 6.55528C441.281 1.8532 428.669 -0.378057 416 0.00014909Z" fill="#575A5E"/>
<path d="M64.875 96.0002C64.427 91.7634 64.917 87.4799 66.31 83.4537C67.7031 79.4275 69.9651 75.7572 72.9356 72.7032C75.9061 69.6492 79.5124 67.2863 83.4984 65.7823C87.4845 64.2782 91.7527 63.6698 96.0003 64.0001C104.487 64.0001 112.627 60.6287 118.628 54.6276C124.629 48.6264 128 40.4871 128 32.0002C128 23.5132 124.629 15.3739 118.628 9.37273C112.627 3.37157 104.487 0.00014909 96.0003 0.00014909C83.3312 -0.378057 70.7198 1.8532 58.9495 6.55528C47.1793 11.2574 36.5018 18.3298 27.5805 27.3331C18.6593 36.3364 11.6849 47.0781 7.09071 58.8909C2.49656 70.7037 0.380824 83.3351 0.874969 96.0002C0.874969 104.487 4.24639 112.626 10.2476 118.628C16.2487 124.629 24.388 128 32.875 128C41.3619 128 49.5012 124.629 55.5024 118.628C61.5036 112.626 64.875 104.487 64.875 96.0002Z" fill="#575A5E"/>
<path d="M288.641 264.085V181.333C288.641 172.846 285.269 164.707 279.268 158.706C273.267 152.704 265.128 149.333 256.641 149.333C248.154 149.333 240.014 152.704 234.013 158.706C228.012 164.707 224.641 172.846 224.641 181.333V272.917C224.643 284.232 229.14 295.083 237.142 303.082L275.393 341.333C281.428 347.162 289.511 350.387 297.901 350.315C306.292 350.242 314.318 346.876 320.251 340.943C326.184 335.01 329.549 326.984 329.622 318.594C329.695 310.204 326.47 302.12 320.641 296.085L288.641 264.085Z" fill="#575A5E"/>
</g>
<defs>
<clipPath id="clip0_3603_33">
<rect width="512" height="512" fill="white"/>
</clipPath>
</defs>
</svg>
