<svg width="385" height="512" viewBox="0 0 385 512" fill="none" xmlns="http://www.w3.org/2000/svg">
<path d="M366.269 511.827C365.37 511.933 364.472 511.997 363.595 511.997C352.965 511.997 343.746 504.104 342.398 493.309C332.602 415.166 272.37 362.665 192.502 362.665C112.634 362.665 52.4023 415.166 42.606 493.309C41.1301 505 30.3499 513.32 18.7355 511.827C7.01417 510.376 -1.30626 499.709 0.169599 488.019C12.5754 389.097 91.6516 319.998 192.502 319.998C293.353 319.998 372.45 389.097 384.835 488.019C386.289 499.709 377.99 510.376 366.269 511.827ZM32.0824 149.333C32.0824 137.557 41.6648 127.999 53.4717 127.999H64.1664V117.333C64.1664 52.6291 116.934 0 181.807 0H203.197C268.07 0 320.838 52.6291 320.838 117.333V127.999H331.532C343.339 127.999 352.922 137.557 352.922 149.333C352.922 161.108 343.339 170.666 331.532 170.666H320.838C320.838 241.257 263.279 298.665 192.502 298.665C121.725 298.665 64.1664 241.257 64.1664 170.666H53.4717C41.6648 170.666 32.0824 161.108 32.0824 149.333ZM278.059 170.666H106.945C106.945 217.727 145.317 255.999 192.502 255.999C239.687 255.999 278.059 217.727 278.059 170.666ZM106.945 127.999H278.059V117.333C278.059 79.7862 250.125 48.6184 213.891 43.4344V85.3329C213.891 97.1088 204.309 106.666 192.502 106.666C180.695 106.666 171.113 97.1088 171.113 85.3329V43.4344C134.879 48.6184 106.945 79.7862 106.945 117.333V127.999Z" fill="#575A5E"/>
</svg>
