<svg width="512" height="512" viewBox="0 0 512 512" fill="none" xmlns="http://www.w3.org/2000/svg">
<g clip-path="url(#clip0_3603_27)">
<path d="M503.68 231.168L467.029 154.538C462.378 144.832 451.2 140.074 441.024 143.509L255.914 205.29L70.5489 143.53C60.3729 140.138 49.1943 144.853 44.5436 154.581L9.30094 228.672C-0.87506 245.568 -2.79506 265.856 4.03161 284.33C10.6449 302.25 24.5969 316.138 42.4529 322.624L42.3249 372.01C42.3249 418.026 71.6156 458.73 115.264 473.28L208.384 504.341C223.616 509.397 239.616 511.936 255.616 511.936C271.616 511.936 287.616 509.397 302.848 504.32L396.053 473.258C439.658 458.709 468.97 418.09 468.992 372.181L469.12 322.645C487.168 316.33 501.29 302.485 507.925 284.501C514.666 266.197 512.768 246.101 503.68 231.168ZM46.8049 248.874L74.9223 189.93L225.642 240.149L191.082 309.61C185.92 318.272 175.53 322.069 166.037 318.912L57.6423 282.752C51.2849 280.64 46.3356 275.84 44.0103 269.568C41.7063 263.317 42.3676 256.426 46.8049 248.874ZM128.768 432.832C102.57 424.085 84.9703 399.658 84.9916 372.074L85.0769 336.874L152.576 359.381C181.29 368.896 212.16 357.461 228.501 330.112L234.41 318.272L234.325 467.157C230.122 466.304 225.984 465.216 221.909 463.872L128.789 432.832H128.768ZM382.549 432.789L289.344 463.85C285.29 465.194 281.152 466.304 276.97 467.157L277.056 317.93L283.861 331.584C295.744 351.381 316.544 362.73 338.517 362.73C345.301 362.73 352.234 361.642 358.997 359.381L426.41 336.917L426.325 372.138C426.325 399.701 408.725 424.064 382.549 432.789ZM467.882 269.696C465.642 275.776 460.821 280.448 454.677 282.517L345.493 318.89C336.149 322.026 325.546 318.122 321.258 311.104L285.973 240.234L436.672 189.952L466.154 251.392C469.482 256.96 470.144 263.616 467.882 269.696ZM111.232 125.781C102.89 117.44 102.89 103.957 111.232 95.6158L194.368 12.5011C210.986 -4.11756 238.08 -4.11756 254.698 12.5011L288.746 46.5491C304.81 38.3358 325.824 40.7891 338.944 53.9091L387.05 102.016C395.392 110.357 395.392 123.84 387.05 132.181C378.709 140.522 365.226 140.522 356.885 132.181L308.778 84.0744L241.557 151.296C237.397 155.456 231.936 157.546 226.474 157.546C221.013 157.546 215.552 155.456 211.392 151.296C203.05 142.954 203.05 129.472 211.392 121.13L257.194 75.3278L224.554 42.6878L141.418 125.802C137.258 129.962 131.797 132.053 126.336 132.053C120.874 132.053 115.413 129.962 111.253 125.802L111.232 125.781Z" fill="#575A5E"/>
</g>
<defs>
<clipPath id="clip0_3603_27">
<rect width="512" height="512" fill="white"/>
</clipPath>
</defs>
</svg>
