<svg width="512" height="512" viewBox="0 0 512 512" fill="none" xmlns="http://www.w3.org/2000/svg">
<path d="M77.5849 512C76.9005 512 76.2375 512 75.5532 512C53.6958 511.424 33.5708 502.144 18.8995 485.888C-8.24042 455.83 -5.84509 405.164 24.1178 375.277L149.616 250.116C155.027 244.698 156.973 236.655 154.77 228.591C147.113 200.475 146.365 171.504 152.589 142.492C167.73 71.7728 225.967 15.6884 297.527 2.93129C319.042 -0.90864 340.621 -0.993972 361.73 2.78196C377.364 5.53392 389.512 16.1151 394.238 31.0482C399.606 48.0932 394.174 66.9089 379.652 81.3726L331.596 128.668C317.524 142.705 315.385 164.721 326.848 178.694C333.435 186.758 342.717 191.451 352.983 191.963C363.078 192.389 373.001 188.656 380.166 181.531L435.344 127.132C446.871 115.633 463.831 111.452 479.614 116.444C495.077 121.287 506.434 134.108 509.235 149.873C512.978 170.928 512.914 192.496 509.085 213.936C496.253 285.337 440.027 343.427 369.13 358.509C339.98 364.717 310.937 363.97 282.813 356.312C274.75 354.093 266.687 356.056 261.255 361.453L133.447 488.918C118.69 503.637 98.4371 512 77.5849 512ZM332.559 42.5253C323.533 42.5253 314.294 43.2719 305.055 44.9146C250.433 54.6638 205.949 97.4577 194.4 151.387C189.609 173.68 190.165 195.888 196.025 217.37C202.227 240.026 196.025 264.111 179.857 280.26L54.3588 405.42C40.4574 419.287 38.7037 444.033 50.7017 457.324C57.4385 464.79 66.6776 469.057 76.6867 469.313C86.546 469.718 96.1273 465.835 103.228 458.774L231.014 331.31C247.161 315.203 271.328 308.974 294.062 315.161C315.535 321.006 337.798 321.561 360.212 316.782C414.278 305.284 457.18 260.932 466.975 206.405C469.926 189.936 469.969 173.403 467.103 157.318V157.169L410.321 211.76C394.73 227.311 373.023 235.994 350.844 234.543C328.688 233.434 307.878 222.917 293.763 205.68C268.548 174.982 271.927 127.836 301.484 98.375L349.54 51.0798C353.368 47.2399 353.625 44.3813 353.475 43.8053C346.738 42.9733 339.723 42.4826 332.601 42.4826L332.559 42.5253Z" fill="#575A5E"/>
</svg>
