<svg width="512" height="512" viewBox="0 0 512 512" fill="none" xmlns="http://www.w3.org/2000/svg">
<g clip-path="url(#clip0_3603_38)">
<path d="M379.648 203.051C368.853 193.088 362.667 178.88 362.667 164.053V64H373.333C390.997 64 405.333 49.6853 405.333 32C405.333 14.3147 390.997 0 373.333 0H138.667C121.003 0 106.667 14.3147 106.667 32C106.667 49.6853 121.003 64 138.667 64H149.333V164.053C149.333 178.859 143.147 193.067 132.373 203.029C71.9787 258.795 0 340.992 0 416C0 434.176 4.50133 451.008 13.4187 466.069C30.2507 494.4 62.6347 512 97.92 512H414.08C449.365 512 481.749 494.4 498.603 466.027C507.499 451.008 512 434.176 512 416C512 340.992 440.021 258.795 379.648 203.051ZM443.541 433.387C438.272 442.283 426.709 448.021 414.08 448.021H97.92C85.2907 448.021 73.728 442.283 68.48 433.429C65.4507 428.352 64 422.656 64 416.021C64 401.152 69.9947 382.997 81.2587 362.688H309.333C326.997 362.688 341.333 348.373 341.333 330.688C341.333 313.003 326.997 298.688 309.333 298.688H127.979C141.931 282.88 157.952 266.56 175.829 250.069C199.659 228.032 213.355 196.693 213.355 164.075V64H298.688V164.053C298.688 196.651 312.384 228.011 336.235 250.048C406.229 314.688 448.021 376.725 448.021 416C448.021 422.635 446.571 428.331 443.563 433.365L443.541 433.387Z" fill="#575A5E"/>
</g>
<defs>
<clipPath id="clip0_3603_38">
<rect width="512" height="512" fill="white"/>
</clipPath>
</defs>
</svg>
