<svg width="512" height="512" viewBox="0 0 512 512" fill="none" xmlns="http://www.w3.org/2000/svg">
<g clip-path="url(#clip0_3603_31)">
<path d="M512 149.333V106.667H469.333C469.333 71.3813 440.619 42.6667 405.333 42.6667V0H362.667V42.6667H320V0H277.333V42.6667H234.667V0H192V42.6667H149.333V0H106.667V42.6667C71.3813 42.6667 42.6667 71.3813 42.6667 106.667H0V149.333H42.6667V192H0V234.667H42.6667V277.333H0V320H42.6667V362.667H0V405.333H42.6667V469.333H106.667V512H149.333V469.333H192V512H234.667V469.333H277.333V512H320V469.333H362.667V512H405.333V469.333H469.333V405.333H512V362.667H469.333V320H512V277.333H469.333V234.667H512V192H469.333V149.333H512ZM426.667 426.667H85.3333V106.667C85.3333 94.8907 94.912 85.3333 106.667 85.3333H405.333C417.109 85.3333 426.667 94.8907 426.667 106.667V426.667ZM133.355 234.688V278.784C133.355 288.363 140.992 294.805 149.333 294.805C158.784 294.677 166.165 286.421 165.333 277.333H192C192.96 301.227 173.568 321.344 149.333 321.451C125.675 321.472 106.667 302.485 106.667 279.125V234.347C106.667 211.008 125.675 192 149.333 192C172.885 192.171 192 211.413 192 234.667H165.333C165.333 226.261 158.037 218.816 149.333 218.667C140.992 218.667 133.355 225.109 133.355 234.688ZM378.667 192H405.333V279.125C405.333 302.464 386.325 321.472 362.667 321.472C339.115 321.301 320 302.379 320 279.125V278.784H319.979V192H346.667V279.125C346.667 287.531 353.963 294.656 362.667 294.805C371.008 294.805 378.645 288.363 378.645 278.784L378.667 192ZM255.317 192H213.355V321.472H240.021V276.757L255.317 276.693C278.976 276.693 298.24 257.685 298.24 234.347C298.24 211.008 278.997 192 255.317 192ZM255.317 250.027L240.171 250.091L240.064 218.667H255.317C264.128 218.667 271.573 225.835 271.573 234.347C271.573 242.859 264.128 250.027 255.317 250.027Z" fill="#575A5E"/>
</g>
<defs>
<clipPath id="clip0_3603_31">
<rect width="512" height="512" fill="white"/>
</clipPath>
</defs>
</svg>
