<svg width="954" height="95" viewBox="0 0 954 95" fill="none" xmlns="http://www.w3.org/2000/svg">
<path d="M4.375 92C1.45833 92 0 90.4375 0 87.3125V7.0625C0 3.9375 1.45833 2.375 4.375 2.375H58C61.125 2.375 62.6875 3.72917 62.6875 6.4375V13.8125C62.6875 16.5208 61.125 17.875 58 17.875H18.25V37.75H54.6875C57.8125 37.75 59.375 39.1042 59.375 41.8125V49.1875C59.375 51.8958 57.8125 53.25 54.6875 53.25H18.25V76.5H60C63.125 76.5 64.6875 77.8542 64.6875 80.5625V87.9375C64.6875 90.6458 63.125 92 60 92H4.375ZM74.25 6.5C73.2083 3.75 74.1875 2.375 77.1875 2.375H87.125C89.9167 2.375 91.8333 3.8125 92.875 6.6875L112 58.875C112.958 61.5417 113.521 63.3333 113.688 64.25C113.854 65.125 114.042 66.6042 114.25 68.6875H114.5C114.708 66.6042 114.896 65.125 115.062 64.25C115.229 63.3333 115.792 61.5417 116.75 58.875L135.875 6.6875C136.917 3.8125 138.833 2.375 141.625 2.375H151.562C154.562 2.375 155.542 3.75 154.5 6.5L124.625 86.9375C123.375 90.3125 121.417 92 118.75 92H110C107.333 92 105.375 90.3125 104.125 86.9375L74.25 6.5ZM149.062 92C146.062 92 145.083 90.625 146.125 87.875L176.75 7.4375C178.042 4.0625 180 2.375 182.625 2.375H191.375C194 2.375 195.958 4.0625 197.25 7.4375L227.875 87.875C228.917 90.625 227.938 92 224.938 92H215C212.25 92 210.333 90.5625 209.25 87.6875L202.875 70.875H171.125L164.75 87.6875C163.667 90.5625 161.75 92 159 92H149.062ZM176.938 55.375H197.062L189.375 35.5C188.458 33.1667 187.896 31.4792 187.688 30.4375C187.521 29.3542 187.333 27.7708 187.125 25.6875H186.875C186.667 27.7708 186.458 29.3542 186.25 30.4375C186.083 31.4792 185.542 33.1667 184.625 35.5L176.938 55.375ZM243.375 92C240.458 92 239 90.4375 239 87.3125V7.0625C239 3.9375 240.458 2.375 243.375 2.375H253.5C256 2.375 257.25 3.9375 257.25 7.0625V76.5H293.688C296.812 76.5 298.375 77.8542 298.375 80.5625V87.9375C298.375 90.6458 296.812 92 293.688 92H243.375ZM311.625 54.6875V5.8125C311.625 3.52083 313.083 2.375 316 2.375H325.5C328.417 2.375 329.875 3.52083 329.875 5.8125V54.0625C329.875 65.3125 331.521 72.3542 334.812 75.1875C338.146 77.9792 341.896 79.375 346.062 79.375C350.229 79.375 353.958 77.9792 357.25 75.1875C360.583 72.3542 362.25 65.3125 362.25 54.0625V5.8125C362.25 3.52083 363.708 2.375 366.625 2.375H376.125C379.042 2.375 380.5 3.52083 380.5 5.8125V54.6875C380.5 69.2708 377.417 79.5 371.25 85.375C365.083 91.2083 356.688 94.125 346.062 94.125C335.438 94.125 327.042 91.2083 320.875 85.375C314.708 79.5 311.625 69.2708 311.625 54.6875ZM397.688 92C394.688 92 393.708 90.625 394.75 87.875L425.375 7.4375C426.667 4.0625 428.625 2.375 431.25 2.375H440C442.625 2.375 444.583 4.0625 445.875 7.4375L476.5 87.875C477.542 90.625 476.562 92 473.562 92H463.625C460.875 92 458.958 90.5625 457.875 87.6875L451.5 70.875H419.75L413.375 87.6875C412.292 90.5625 410.375 92 407.625 92H397.688ZM425.562 55.375H445.688L438 35.5C437.083 33.1667 436.521 31.4792 436.312 30.4375C436.146 29.3542 435.958 27.7708 435.75 25.6875H435.5C435.292 27.7708 435.083 29.3542 434.875 30.4375C434.708 31.4792 434.167 33.1667 433.25 35.5L425.562 55.375ZM488.688 85.3125C486.104 83.3542 485.479 81.375 486.812 79.375L491.625 72.125C493.208 69.75 495.521 69.625 498.562 71.75C500.896 73.375 503.938 75.0625 507.688 76.8125C511.479 78.5208 515.458 79.375 519.625 79.375C522.542 79.375 525.354 79.0417 528.062 78.375C530.771 77.7083 532.833 76.4167 534.25 74.5C535.667 72.5833 536.375 70.3125 536.375 67.6875C536.375 65.8125 536.062 64.1667 535.438 62.75C534.812 61.3333 533.792 60.1667 532.375 59.25C530.958 58.3333 529.5 57.5625 528 56.9375C525.375 55.8542 522.062 54.7917 518.062 53.75C514.104 52.6667 510.188 51.375 506.312 49.875C502.854 48.5417 499.688 46.7083 496.812 44.375C493.938 42.0417 491.708 39.4167 490.125 36.5C488.542 33.5833 487.75 29.6875 487.75 24.8125C487.75 19.0208 489.625 14.0625 493.375 9.9375C497.125 5.8125 501.438 3.16667 506.312 2C511.188 0.833333 516.104 0.25 521.062 0.25C525.979 0.25 531.042 1 536.25 2.5C541.5 4 545.458 5.875 548.125 8.125C550.75 10.3333 551.396 12.3333 550.062 14.125L545 20.9375C543.292 23.2708 541 23.4583 538.125 21.5C536.292 20.25 533.771 18.8542 530.562 17.3125C527.396 15.7708 524.083 15 520.625 15C518.167 15 515.896 15.2083 513.812 15.625C511.771 16.0417 509.958 17.0417 508.375 18.625C506.792 20.2083 506 22.1667 506 24.5C506 26.75 506.583 28.5833 507.75 30C508.917 31.375 510.208 32.4167 511.625 33.125C513.042 33.7917 514.479 34.3542 515.938 34.8125C520.438 36.2708 524.458 37.5625 528 38.6875C531.542 39.7708 534.812 40.9792 537.812 42.3125C541.979 44.1875 545.167 46.0625 547.375 47.9375C549.583 49.8125 551.396 52.375 552.812 55.625C554.271 58.875 555 62.75 555 67.25C555 73.9167 552.875 79.4375 548.625 83.8125C544.375 88.1458 539.646 90.9375 534.438 92.1875C529.271 93.4792 524.229 94.125 519.312 94.125C512.062 94.125 506.167 93.4167 501.625 92C497.083 90.625 492.771 88.3958 488.688 85.3125ZM566.562 92C563.562 92 562.583 90.625 563.625 87.875L594.25 7.4375C595.542 4.0625 597.5 2.375 600.125 2.375H608.875C611.5 2.375 613.458 4.0625 614.75 7.4375L645.375 87.875C646.417 90.625 645.438 92 642.438 92H632.5C629.75 92 627.833 90.5625 626.75 87.6875L620.375 70.875H588.625L582.25 87.6875C581.167 90.5625 579.25 92 576.5 92H566.562ZM594.438 55.375H614.562L606.875 35.5C605.958 33.1667 605.396 31.4792 605.188 30.4375C605.021 29.3542 604.833 27.7708 604.625 25.6875H604.375C604.167 27.7708 603.958 29.3542 603.75 30.4375C603.583 31.4792 603.042 33.1667 602.125 35.5L594.438 55.375ZM656.5 54.6875V5.8125C656.5 3.52083 657.958 2.375 660.875 2.375H670.375C673.292 2.375 674.75 3.52083 674.75 5.8125V54.0625C674.75 65.3125 676.396 72.3542 679.688 75.1875C683.021 77.9792 686.771 79.375 690.938 79.375C695.104 79.375 698.833 77.9792 702.125 75.1875C705.458 72.3542 707.125 65.3125 707.125 54.0625V5.8125C707.125 3.52083 708.583 2.375 711.5 2.375H721C723.917 2.375 725.375 3.52083 725.375 5.8125V54.6875C725.375 69.2708 722.292 79.5 716.125 85.375C709.958 91.2083 701.562 94.125 690.938 94.125C680.312 94.125 671.917 91.2083 665.75 85.375C659.583 79.5 656.5 69.2708 656.5 54.6875ZM749.75 92C746.833 92 745.375 90.4375 745.375 87.3125V7.0625C745.375 3.9375 746.833 2.375 749.75 2.375H778.688C791.562 2.375 800.958 4.375 806.875 8.375C812.792 12.3333 815.75 18.7917 815.75 27.75C815.75 34.4167 813.354 39.7292 808.562 43.6875C803.771 47.6458 797.688 50.2708 790.312 51.5625V51.6875C794.312 53.1875 797.333 55.2708 799.375 57.9375C801.417 60.6042 803.083 62.9375 804.375 64.9375L818.125 86.625C820.417 90.2083 819.625 92 815.75 92H804.875C802.583 92 800.708 90.7708 799.25 88.3125L786.625 67.25C785.25 65 782.729 62.5417 779.062 59.875C775.438 57.1667 771.833 55.8125 768.25 55.8125H763.625V87.3125C763.625 90.4375 762.167 92 759.25 92H749.75ZM763.625 40.3125H774.812C783.146 40.3125 789.062 39.375 792.562 37.5C796.104 35.5833 797.875 32.5625 797.875 28.4375C797.875 23.9375 796.167 21.0208 792.75 19.6875C789.375 18.3125 784.396 17.625 777.812 17.625H763.625V40.3125ZM839 92C836.083 92 834.625 90.4375 834.625 87.3125V7.0625C834.625 3.9375 836.083 2.375 839 2.375H848.5C851.417 2.375 852.875 3.9375 852.875 7.0625V87.3125C852.875 90.4375 851.417 92 848.5 92H839ZM868.25 47.1875C868.25 32.8125 871.958 21.3958 879.375 12.9375C886.792 4.47917 897.375 0.25 911.125 0.25C924.875 0.25 935.458 4.47917 942.875 12.9375C950.292 21.3958 954 32.8125 954 47.1875C954 61.5625 950.292 72.9792 942.875 81.4375C935.458 89.8958 924.875 94.125 911.125 94.125C897.375 94.125 886.792 89.8958 879.375 81.4375C871.958 72.9792 868.25 61.5625 868.25 47.1875ZM887.75 47.1875C887.75 57.6042 889.604 65.5833 893.312 71.125C897.062 76.625 903 79.375 911.125 79.375C919.25 79.375 925.167 76.625 928.875 71.125C932.625 65.5833 934.5 57.6042 934.5 47.1875C934.5 36.7708 932.625 28.8125 928.875 23.3125C925.167 17.7708 919.25 15 911.125 15C903 15 897.062 17.7708 893.312 23.3125C889.604 28.8125 887.75 36.7708 887.75 47.1875Z" fill="white"/>
</svg>
