<svg width="32" height="38" viewBox="0 0 32 38" fill="none" xmlns="http://www.w3.org/2000/svg">
<path d="M11.447 1.45293C4.57081 3.84789 5.01961 3.67226 5.06769 4.03949C5.09975 4.31092 5.56458 4.55041 7.24757 5.23697L9.36333 6.11512V7.121C9.36333 8.04705 9.33127 8.14285 9.04276 8.14285C8.17722 8.14285 5.90117 9.69159 4.31435 11.3521C2.40696 13.3639 1.09263 15.695 0.355315 18.3613C0.0347448 19.5429 -0.0133407 20.0697 0.00268781 22.3529C0.0187163 25.4823 0.275172 26.6479 1.49334 29.1387C3.40073 33.0025 6.57437 35.7647 10.6456 37.1059C19.5254 40.0437 28.7578 34.9504 31.0499 25.8655C31.5307 23.9336 31.5147 20.6286 31.0178 18.6008C30.6652 17.1 29.447 14.4496 28.9181 13.9706C28.6616 13.7311 28.5655 13.7311 28.3571 13.8908C28.0045 14.1781 28.0365 14.3218 28.838 16.0143C29.9279 18.2815 30.2324 19.6227 30.2324 22.1134C30.2324 23.4546 30.1523 24.6042 29.976 25.3706C29.3509 28.2126 27.8762 30.7513 25.6162 32.8748L24.2378 34.1681L23.805 33.8647C23.0196 33.3059 19.5575 29.6336 18.5316 28.2765C16.0152 24.9555 14.5886 20.0218 15.3099 17.1639C15.6305 15.9344 15.7427 15.8865 18.1309 16.2697C20.3428 16.621 22.9395 16.7008 24.1095 16.4294C25.7765 16.0622 27.155 14.6092 27.155 13.2361C27.155 11.5756 26.3856 10.442 24.0454 8.68571C22.6349 7.64789 22.1861 7.2168 22.1701 6.92941C22.1541 6.72184 22.138 6.46638 22.122 6.35462C22.106 6.25882 23.0356 5.79579 24.1737 5.33277C26.4657 4.40672 26.8825 4.11932 26.5138 3.78403C26.2734 3.5605 16.0152 -0.0159731 15.6946 -6.67813e-06C15.6144 0.0159597 13.691 0.654615 11.447 1.45293ZM18.3393 4.34285C19.5575 4.61428 21.2244 5.44453 21.2244 5.76386C21.2244 6.46638 21.0802 6.53025 20.3749 6.14705C18.8843 5.3168 17.7462 5.04537 15.7747 5.06134C14.2039 5.06134 13.7391 5.1252 12.6492 5.49243C11.9439 5.73193 11.1265 6.06722 10.838 6.24285C10.5494 6.40251 10.277 6.54621 10.2289 6.54621C10.1968 6.54621 10.1648 6.30672 10.1648 6.00336C10.1648 5.5084 10.2289 5.44453 11.0944 5.06134C12.2965 4.53445 13.0819 4.29495 14.0757 4.13529C15.0214 3.99159 17.2974 4.10335 18.3393 4.34285ZM17.3936 6.78571C18.5797 6.91344 19.9582 7.58403 21.9457 8.9731C24.3339 10.6655 25.0873 11.3361 25.4079 12.0546C25.9689 13.2681 25.6803 14.1941 24.5423 14.8168C23.8371 15.2 20.1986 15.184 17.7623 14.7849C16.0793 14.5134 15.935 14.5134 15.4061 14.7689C13.8994 15.4874 13.3384 17.9143 13.9314 21.2832C14.1238 22.4168 14.7649 24.5563 15.1977 25.5462C15.342 25.8975 13.2422 27.1588 12.3607 27.2546C11.5913 27.3504 10.1648 26.8714 9.49156 26.3126C9.10687 25.9773 9.04276 25.7538 8.73822 23.6302C7.80856 17.084 8.03296 13.3 9.55567 10.3302C10.2289 8.9731 11.6394 7.63193 12.8415 7.18487C13.7551 6.84957 15.5503 6.54621 16.1754 6.64201C16.3518 6.67394 16.8967 6.73781 17.3936 6.78571ZM8.00091 10.2025C7.50402 11.1765 6.97508 13.4597 6.79877 15.3277C6.60643 17.5311 6.78274 20.5647 7.27962 23.9176C7.47197 25.2269 7.60019 26.8555 7.60019 28.0689C7.58417 30.0647 7.24757 33.7689 7.07125 33.9605C6.89494 34.1202 4.92344 32.284 4.07393 31.1664C3.06413 29.8252 1.95816 27.6218 1.47731 25.9454C0.948369 24.0933 0.948369 20.4529 1.47731 18.6008C2.42299 15.2639 4.37847 12.4378 7.11934 10.3941C8.16119 9.61176 8.33751 9.57983 8.00091 10.2025ZM16.4319 27.8134C17.3936 29.2983 18.8201 31.0067 20.7916 33.0025C21.8656 34.0882 22.699 34.9823 22.651 35.0302C22.3945 35.2538 20.7756 35.9563 19.7819 36.2597C18.7881 36.563 18.2111 36.6269 16.4319 36.6429H14.2841L13.659 33.8008L13.0339 30.9748L13.4506 30.4319C13.7872 29.9849 13.8353 29.8092 13.7071 29.5538C13.1461 28.5319 13.1621 28.4521 13.9795 28.037C14.3963 27.8294 14.9092 27.5101 15.1336 27.3185C15.358 27.1429 15.6144 26.9992 15.7106 26.9832C15.8228 26.9832 16.1434 27.3664 16.4319 27.8134ZM10.0846 28.0849C10.5174 28.2765 10.9021 28.4521 10.9181 28.484C10.9341 28.5 10.854 28.8513 10.7258 29.2664C10.5174 29.9849 10.5174 30.0328 10.9021 30.4798L11.3028 30.9588L10.7899 33.242C10.5174 34.5034 10.2449 35.5891 10.1808 35.6529C10.1006 35.7328 9.69993 35.621 9.28319 35.4134L8.52985 35.0462L8.62602 33.9286C8.6741 33.3059 8.80233 31.6454 8.91453 30.2084C9.0107 28.7874 9.13893 27.6378 9.18702 27.6697C9.2351 27.6857 9.63581 27.8773 10.0846 28.0849Z" fill="black"/>
<path d="M16.8968 9.67574C16.5762 10.043 16.6404 10.8732 16.977 11.1127C17.6502 11.6077 18.4997 11.1446 18.4997 10.2825C18.4997 9.56397 17.3456 9.11691 16.8968 9.67574Z" fill="black"/>
</svg>
