<svg width="603" height="728" viewBox="0 0 603 728" fill="none" xmlns="http://www.w3.org/2000/svg">
<path d="M281.778 6.54352C271.511 10.0102 251.111 17.2102 236.444 22.2769C174.578 43.8769 102.044 69.2101 101.644 69.2101C101.511 69.2101 100.311 70.1435 99.2445 71.3435C96.4445 74.1435 96.5778 80.2768 99.5111 82.9435C101.511 84.8101 133.244 98.2768 173.111 114.143L181.778 117.61L181.511 127.077C181.244 132.277 180.711 140.677 180.311 145.877L179.644 155.21L173.378 155.344C168.444 155.477 164.311 157.077 154.444 162.544C87.5111 199.744 39.3778 258.277 14.5778 332.677C2.71114 368.677 -0.888856 393.877 0.17781 435.61C1.24448 478.543 7.24447 506.943 23.3778 545.21C48.4445 604.677 97.5111 659.21 153.778 690.01C185.111 707.21 219.244 718.943 255.111 724.81C272.444 727.61 315.111 728.543 333.378 726.677C368.311 722.81 400.444 713.61 432.444 697.877C515.511 657.343 573.911 584.943 594.844 496.543C600.178 474.41 602.444 453.077 602.444 427.21C602.444 390.143 596.711 356.81 585.111 325.877C573.911 296.01 554.178 262.543 547.911 262.543C544.844 262.543 538.444 272.01 538.444 276.543C538.444 278.41 541.111 284.677 544.444 290.41C570.444 335.61 582.444 383.077 580.711 434.543C578.711 494.543 561.111 545.61 526.044 593.21C515.378 607.61 484.711 638.943 472.044 648.277L463.511 654.543L455.511 648.143C427.111 626.01 368.178 561.61 345.111 527.877C319.378 490.143 301.511 444.81 293.911 398.543C288.044 362.677 290.578 327.21 300.178 313.077C304.978 306.01 309.511 305.477 332.711 309.61C363.911 315.21 377.644 317.077 401.111 318.543C453.378 322.01 484.578 313.477 506.178 289.877C514.578 280.81 518.178 272.81 520.044 260.01C523.644 235.077 509.778 204.943 485.111 184.41C481.111 181.077 466.178 170.01 452.178 159.743C438.044 149.477 426.178 140.543 425.911 140.01C425.511 139.477 424.844 134.41 424.311 128.81C423.378 118.944 423.511 118.544 426.578 117.344C428.311 116.544 447.511 108.81 469.111 100.143C502.844 86.5435 508.578 83.7435 509.644 80.9435C511.244 76.5435 509.778 71.0768 506.844 69.8768C502.711 68.2768 453.244 51.0768 385.111 27.7435C348.844 15.2101 315.911 3.87685 312.044 2.54352C308.178 1.07685 304.044 -0.12314 302.711 0.0101929C301.511 0.0101929 292.044 2.94352 281.778 6.54352ZM344.444 81.2101C351.778 82.8101 362.311 85.6102 367.778 87.3435C378.978 91.0768 404.044 103.077 406.311 105.61C407.244 106.944 407.244 109.877 406.311 115.877C405.511 120.677 404.711 124.677 404.444 124.943C404.178 125.21 402.178 124.143 399.911 122.677C392.578 117.477 368.711 106.81 356.444 103.21C335.778 97.2101 320.444 95.4768 295.778 96.4102C272.578 97.2102 259.244 99.4768 239.111 106.01C228.178 109.61 207.511 119.343 200.978 124.01C198.978 125.343 196.978 126.144 196.711 125.61C196.311 124.944 195.778 120.41 195.644 115.344L195.111 106.01L205.778 100.41C223.511 90.8102 247.378 83.0768 271.244 79.2101C288.578 76.4101 326.844 77.4768 344.444 81.2101ZM329.111 128.544C347.778 131.344 364.178 136.543 378.178 144.01C392.711 151.743 388.311 148.81 432.178 179.877C470.578 207.077 481.378 217.21 488.178 231.61C493.778 243.61 494.711 257.077 490.444 265.743C487.378 272.277 479.778 279.21 471.111 283.61C450.178 294.01 401.111 293.61 335.778 282.41C311.111 278.143 306.178 278.277 296.178 282.543C288.311 286.01 278.311 295.743 274.044 304.143C266.311 319.477 264.578 329.743 264.578 361.877C264.444 386.81 264.978 393.743 267.511 408.277C272.044 433.343 279.378 458.277 289.911 484.41L293.511 493.61L289.644 496.81C276.178 507.743 246.978 523.077 236.311 524.677C225.511 526.277 197.111 515.477 182.311 504.277L176.311 499.743L171.911 473.477C156.178 377.21 153.378 316.543 162.444 265.21C168.444 230.543 179.778 200.677 195.111 179.344C203.111 168.01 221.511 150.677 231.511 144.81C256.578 130.144 296.178 123.477 329.111 128.544ZM155.111 195.21C138.711 228.81 130.044 276.01 130.044 331.877C130.044 374.677 134.311 420.01 144.178 480.543C147.911 504.01 148.444 510.143 148.311 531.21C148.178 554.41 145.778 587.21 141.778 623.21C138.711 649.343 138.178 653.21 137.244 653.21C133.111 653.21 97.2445 619.477 83.5111 602.943C58.8445 572.81 39.5111 534.41 29.7778 496.01C23.1111 469.61 21.9111 458.543 21.9111 425.877C21.9111 398.143 22.3111 393.477 25.6445 376.677C37.7778 313.877 71.3778 254.543 116.844 215.61C128.844 205.21 158.178 184.544 159.244 185.61C159.378 185.744 157.511 190.01 155.111 195.21ZM319.644 539.077C340.578 570.543 368.178 603.077 409.111 644.143L436.578 671.743L423.111 678.277C383.644 697.743 349.511 705.477 303.111 705.743L275.244 705.877L269.511 679.877C266.444 665.61 261.111 641.21 257.778 625.877C254.444 610.41 251.378 596.943 250.978 595.743C250.578 594.41 253.378 589.877 258.444 583.877C262.844 578.677 266.444 574.143 266.444 573.877C266.444 573.61 263.511 566.943 259.911 559.077L253.511 544.677L260.311 541.877C268.844 538.41 282.978 530.143 295.111 521.477L304.444 514.81L307.111 519.477C308.578 522.143 314.178 530.943 319.644 539.077ZM184.311 533.877C188.844 536.41 196.711 540.01 201.778 541.877C206.978 543.877 211.244 545.61 211.378 545.743C211.511 545.877 209.644 552.543 207.111 560.41C204.578 568.41 202.978 575.61 203.378 576.41C203.911 577.21 207.244 581.343 210.844 585.477L217.378 593.077L207.644 639.877C199.911 676.41 197.378 686.543 195.778 686.543C194.711 686.543 186.978 683.21 178.844 679.21C161.778 671.077 162.711 672.543 165.244 655.21C167.378 640.543 172.978 572.01 174.044 549.477C174.444 538.41 175.111 529.21 175.378 529.21C175.778 529.21 179.778 531.343 184.311 533.877Z" fill="white"/>
<path d="M328.179 182.41C316.579 189.743 317.112 208.943 328.979 215.21C338.312 220.01 348.579 216.41 353.245 206.943C356.979 199.343 355.779 191.877 349.912 185.477C344.312 179.477 334.979 178.143 328.179 182.41Z" fill="white"/>
</svg>
