<svg width="311" height="31" viewBox="0 0 311 31" fill="none" xmlns="http://www.w3.org/2000/svg">
<path d="M165.84 0.298877C163.753 0.714574 162.387 1.47039 160.908 3.0198C159.39 4.56922 158.897 5.89189 158.897 8.2727C158.897 12.9587 161.439 15.1884 169.823 17.7204C173.389 18.8163 174.451 19.7611 174.451 21.9529C174.451 23.2378 174.224 23.8046 173.465 24.5227C172.592 25.3163 172.137 25.4296 169.406 25.4296C166.522 25.4296 166.105 25.3163 163.753 24.0314C162.349 23.2378 160.984 22.7087 160.718 22.7843C160.452 22.8977 159.732 23.7669 159.125 24.7116L158.024 26.4122L158.897 27.3192C160.377 28.8686 163.867 30.1535 167.319 30.418C176.386 31.0227 181.963 26.4122 180.483 19.6099C179.725 15.9442 177.524 14.3192 170.468 12.014C165.991 10.5401 164.967 9.78433 164.967 7.857C164.967 5.8541 165.991 5.09829 168.875 4.90933C170.999 4.75817 171.492 4.90933 173.806 6.11863C175.21 6.83666 176.576 7.36572 176.841 7.25235C177.107 7.17677 177.79 6.38317 178.397 5.51398C179.232 4.34247 179.421 3.81341 179.118 3.35992C177.562 0.865736 170.885 -0.683679 165.84 0.298877Z" fill="black"/>
<path d="M293.084 0.298484C288.987 1.35662 285.572 4.30429 284.017 8.19672C283.258 10.0107 283.144 10.9932 283.182 15.2258C283.182 19.4961 283.296 20.4409 284.093 22.406C285.269 25.3915 288.455 28.6037 291.111 29.5484C294.032 30.5688 297.902 30.7199 300.785 30.0019C304.958 28.9438 307.31 26.9787 309.283 22.9729C310.421 20.592 310.459 20.4031 310.459 15.2258C310.459 10.1996 310.421 9.82172 309.359 7.55428C308.031 4.6822 305.034 1.81011 302.417 0.865343C300.254 0.109531 295.095 -0.192794 293.084 0.298484ZM300.406 5.66475C302.568 6.76068 303.631 8.65021 304.238 12.3537C305.034 17.4554 303.668 22.7083 301.127 24.5223C299.306 25.8072 295.436 25.9583 293.198 24.7868C290.58 23.4263 289.632 21.2723 289.48 16.1328C289.252 9.97288 290.504 6.76068 293.729 5.36243C295.588 4.56882 298.471 4.71999 300.406 5.66475Z" fill="black"/>
<path d="M0.12804 1.16787C0.0142266 1.39462 -0.023711 7.93239 0.0142266 15.6039L0.12804 29.5864H10.3712H20.6144V27.319V25.0516L13.2165 24.8626L5.81868 24.6736L5.70487 20.9702L5.59106 17.3045H11.8508C18.9072 17.3045 19.2865 17.1911 19.2865 14.6591C19.2865 12.1272 18.9072 12.0138 11.8508 12.0138H5.629V8.80158V5.58938H12.6475C19.1727 5.58938 19.6659 5.55159 20.0453 4.87135C20.5385 3.92659 20.5385 2.33938 20.0453 1.39462C19.6659 0.714384 19.1348 0.676594 9.95389 0.676594C2.55605 0.676594 0.241852 0.789966 0.12804 1.16787Z" fill="black"/>
<path d="M24.0293 1.09231C23.7258 1.54579 33.5517 28.1882 34.3863 29.0952C34.8036 29.5864 35.5244 29.7754 37.1558 29.7754C39.0526 29.7754 39.47 29.662 39.9252 28.9062C40.7978 27.508 50.4339 1.39463 50.2063 1.01672C50.0546 0.827771 48.9164 0.676608 47.5886 0.676608C45.8055 0.676608 45.0468 0.827771 44.6295 1.31905C44.326 1.69696 42.5429 6.15625 40.7219 11.258C37.4972 20.101 36.7385 21.9149 36.7385 20.6678C36.7385 19.8742 30.0235 1.84812 29.4924 1.20568C28.9612 0.563237 24.4087 0.449865 24.0293 1.09231Z" fill="black"/>
<path d="M58.2874 1.1301C57.6424 1.62137 47.3613 28.0748 47.3613 29.2085C47.3613 29.662 47.8545 29.7754 49.979 29.7754C51.6103 29.7754 52.7105 29.5864 52.9761 29.2841C53.1658 29.0574 53.8107 27.508 54.4177 25.883L55.5179 22.9731L60.7912 23.0487L66.0646 23.162L67.051 25.8452C68.4167 29.6242 68.6064 29.7754 71.4897 29.7754C72.7795 29.7754 73.9935 29.6242 74.1074 29.3975C74.3729 28.944 64.2056 2.22602 63.4089 1.35684C62.6881 0.525446 59.2358 0.412074 58.2874 1.1301ZM62.5364 14.0545C63.1434 15.6417 63.6745 17.1155 63.6745 17.3045C63.6745 17.5312 62.3467 17.6824 60.6016 17.6824C57.8321 17.6824 57.5666 17.6068 57.7942 17.0022C59.3117 13.2609 60.6395 9.55741 60.6774 9.06613C60.7154 8.68822 60.8671 9.02834 61.0568 9.78415C61.2086 10.54 61.8914 12.4673 62.5364 14.0545Z" fill="black"/>
<path d="M78.1653 1.13021C77.5204 1.77265 77.5204 28.6796 78.1653 29.322C78.6965 29.8511 95.7684 29.9645 96.603 29.4354C96.9445 29.2464 97.0583 28.4906 96.9824 27.0924L96.8686 25.0517L90.3433 24.9383L83.7801 24.8627V13.2232C83.7801 4.68253 83.6663 1.47033 83.3249 1.13021C83.0593 0.865679 81.9212 0.676726 80.7451 0.676726C79.569 0.676726 78.4309 0.865679 78.1653 1.13021Z" fill="black"/>
<path d="M101.687 1.13011C101.118 1.69697 101.042 17.4935 101.649 21.0836C102.597 27.0923 105.48 29.8888 111.285 30.4178C116.331 30.8713 120.58 28.9818 122.249 25.5051C123.653 22.633 123.994 19.6097 123.994 10.0865C123.994 3.1708 123.88 1.43243 123.463 1.09232C123.121 0.827784 121.945 0.676622 120.504 0.752203L118.114 0.865575L117.924 11.258C117.772 19.6853 117.62 21.915 117.127 23.0109C115.572 26.412 109.691 26.4876 108.136 23.0865C107.605 21.8772 107.453 19.9121 107.301 11.258L107.112 0.865575L104.646 0.752203C103.052 0.676622 101.99 0.827784 101.687 1.13011Z" fill="black"/>
<path d="M139.018 1.508C138.183 2.75509 128.547 28.1126 128.547 29.0196C128.547 29.6998 128.812 29.7754 130.975 29.7754C132.568 29.7754 133.593 29.5864 133.972 29.2463C134.238 28.944 134.958 27.4324 135.527 25.8452L136.59 22.9731H141.825H147.023L148.085 25.8074C148.654 27.3946 149.375 28.9062 149.678 29.2085C150.058 29.5864 151.044 29.7754 152.675 29.7754C154.8 29.7754 155.103 29.6998 155.103 29.0574C155.103 28.1882 145.429 2.7173 144.632 1.54579C144.177 0.789977 143.76 0.676606 141.825 0.676606C139.89 0.676606 139.473 0.789977 139.018 1.508ZM143.343 13.3365C144.025 15.1882 144.67 16.9644 144.784 17.1911C144.898 17.569 144.177 17.6824 141.863 17.6824C140.156 17.6824 138.79 17.5312 138.79 17.3801C138.79 17.2289 139.397 15.6039 140.118 13.79C140.839 11.976 141.446 10.2376 141.446 9.85973C141.446 8.72601 142.053 9.82194 143.343 13.3365Z" fill="black"/>
<path d="M194.027 1.50803C193.269 2.71733 183.557 28.226 183.557 29.0952C183.557 29.6998 183.898 29.7754 185.985 29.7754C187.616 29.7754 188.602 29.5865 188.982 29.2086C189.285 28.9062 190.006 27.3946 190.575 25.8074L191.637 22.9731H196.835H202.07L203.132 25.8452C203.702 27.4324 204.422 28.944 204.688 29.2464C205.295 29.851 209.923 30.0022 210.265 29.4353C210.53 29.0196 200.325 2.22605 199.566 1.31908C199.149 0.865592 198.428 0.676638 196.797 0.676638C194.9 0.676638 194.483 0.79001 194.027 1.50803ZM199.225 15.5661C199.604 16.3598 199.87 17.1534 199.87 17.3423C199.87 17.5313 198.504 17.6824 196.835 17.6824C195.166 17.6824 193.8 17.6068 193.8 17.5313C193.8 17.4557 194.407 15.7929 195.128 13.8278C195.886 11.9005 196.569 10.0487 196.683 9.74639C196.797 9.44406 197.252 10.2755 197.745 11.6359C198.239 12.9964 198.883 14.7348 199.225 15.5661Z" fill="black"/>
<path d="M214.173 0.941175C214.021 1.05455 213.907 5.62721 213.907 11.0691C213.907 24.7115 214.514 26.7522 219.408 29.2086C221.457 30.2289 222.064 30.3423 225.137 30.3423C228.21 30.3423 228.817 30.2289 230.789 29.2086C233.483 27.8481 234.887 25.9964 235.721 22.7464C236.177 20.8946 236.29 18.476 236.215 10.6534L236.101 0.865594L233.711 0.752222C232.269 0.676641 231.093 0.827803 230.752 1.09234C230.334 1.43245 230.22 3.35978 230.182 11.4092C230.182 18.0225 230.031 21.6882 229.727 22.5952C228.779 25.3161 224.985 26.4876 222.329 24.8626C220.129 23.54 219.977 22.5952 219.977 11.8249C219.977 5.85396 219.825 1.84815 219.598 1.39466C219.256 0.790012 218.763 0.676641 216.79 0.676641C215.501 0.676641 214.287 0.790012 214.173 0.941175Z" fill="black"/>
<path d="M243.195 1.1301C242.854 1.47021 242.74 5.1359 242.74 15.226C242.74 25.3161 242.854 28.9818 243.195 29.3219C243.461 29.5864 244.599 29.7754 245.775 29.7754C246.951 29.7754 248.089 29.5864 248.355 29.3219C248.659 29.0196 248.81 27.1678 248.81 23.4644V18.0603H250.29C252.794 18.0603 255.07 19.9498 257.65 24.1446C261.33 30.1533 260.95 29.8132 264.099 29.6998C266.413 29.5864 266.831 29.4731 266.793 28.944C266.679 27.8103 260.95 19.2318 259.357 17.9091L257.839 16.5865L259.319 16.2086C261.368 15.6417 264.023 13.8277 264.934 12.3161C265.465 11.4091 265.693 10.4266 265.655 8.80159C265.617 4.56904 263.606 2.26381 259.167 1.20568C256.284 0.525446 243.84 0.487655 243.195 1.1301ZM258.598 6.60974C259.319 7.13881 259.66 7.78125 259.736 8.72601C260.002 11.6737 258.484 12.5807 252.68 12.9964L248.81 13.2609V9.36845V5.47602L253.173 5.66497C256.815 5.81613 257.726 5.9673 258.598 6.60974Z" fill="black"/>
<path d="M272.407 0.97891C272.065 1.24344 271.951 4.38007 272.027 15.4527L272.141 29.5864L274.607 29.6998C276.58 29.7754 277.149 29.6998 277.528 29.1707C278.173 28.3015 278.249 2.56612 277.642 1.39461C277.301 0.827748 276.845 0.676585 275.062 0.676585C273.886 0.676585 272.672 0.827748 272.407 0.97891Z" fill="black"/>
</svg>
